<?xml version="1.0" standalone="no"?>
<!DOCTYPE svg PUBLIC "-//W3C//DTD SVG 20010904//EN"
 "http://www.w3.org/TR/2001/REC-SVG-20010904/DTD/svg10.dtd">
<svg version="1.0" xmlns="http://www.w3.org/2000/svg"
 width="1063.000000pt" height="768.000000pt" viewBox="0 0 1063.000000 768.000000"
 preserveAspectRatio="xMidYMid meet">
<metadata>
Created by potrace 1.16, written by Peter Selinger 2001-2019
</metadata>
<g transform="translate(0.000000,768.000000) scale(0.100000,-0.100000)"
fill="#000000" stroke="none">
<path d="M409 6911 l-29 -29 0 -957 0 -957 29 -29 29 -29 421 0 421 0 0 -590
c0 -324 -3 -590 -6 -590 -3 0 -36 18 -73 40 -144 84 -365 263 -488 394 -85 91
-147 208 -167 314 -14 76 -32 101 -72 102 -11 0 -30 -9 -42 -20 -53 -50 -7
-235 96 -387 61 -90 113 -144 245 -256 168 -142 271 -217 399 -289 l108 -60 0
-815 0 -815 34 -34 34 -34 684 0 684 0 11 -93 c18 -150 85 -260 213 -347 90
-61 315 -169 439 -210 278 -93 501 -102 856 -35 105 20 217 44 249 55 59 20
100 20 2454 20 l2394 0 29 29 29 29 0 969 0 969 114 72 c148 93 208 144 338
289 124 137 169 197 232 309 51 90 58 132 26 164 -42 42 -86 17 -132 -73 -44
-88 -108 -173 -226 -303 -139 -153 -186 -193 -326 -279 l-121 -75 -377 0 -378
0 0 223 0 223 51 59 c168 199 354 557 436 840 22 78 26 115 30 273 10 368 -27
676 -102 858 -90 216 -334 496 -568 650 -150 99 -215 129 -467 218 -369 129
-538 161 -855 159 -453 -3 -747 -91 -1181 -355 -100 -61 -294 -207 -391 -294
l-63 -57 0 362 0 363 -29 29 -29 29 -2467 0 -2467 0 -29 -29z m6983 -205 c180
-28 452 -111 694 -211 247 -102 493 -314 672 -577 117 -171 162 -408 162 -851
0 -189 -3 -230 -21 -300 -50 -197 -175 -470 -308 -671 l-46 -69 -5 1042 -5
1043 -28 24 -28 24 -1304 0 -1304 0 -28 -24 -28 -24 -5 -1308 -5 -1308 -121
102 c-67 56 -175 159 -241 229 -107 115 -172 191 -409 481 -72 88 -205 221
-279 278 l-40 31 70 146 70 146 258 0 259 1 29 29 29 29 0 490 0 490 45 55
c84 101 336 299 535 419 314 190 562 273 900 302 90 8 387 -4 482 -18z m-2692
-1801 c0 -3 -23 -51 -51 -106 -41 -82 -53 -99 -67 -93 -150 65 -363 75 -509
24 -74 -26 -184 -101 -238 -163 l-45 -52 0 198 0 197 455 0 c250 0 455 -2 455
-5z m-245 -300 c88 -27 87 -20 21 -152 -63 -124 -187 -315 -333 -511 -84 -115
-226 -266 -310 -331 l-43 -33 0 359 0 359 79 94 c43 52 94 109 112 127 50 46
145 92 214 103 77 11 196 5 260 -15z m261 -166 c65 -52 141 -134 295 -320 240
-289 294 -351 381 -440 77 -79 184 -173 338 -298 l25 -20 -982 -1 -983 0 0 23
c0 16 19 36 65 70 118 87 293 265 395 402 150 201 285 408 343 527 28 59 54
108 56 108 2 0 32 -23 67 -51z m-1226 -2839 c0 -162 -4 -270 -9 -270 -24 0
-164 57 -280 114 -133 65 -223 120 -258 158 -34 38 -71 119 -78 173 -3 28 -8
60 -11 73 l-4 22 320 0 320 0 0 -270z"/>
</g>
</svg>
